<?xml version="1.0" encoding="UTF-8" standalone="no"?>
<!DOCTYPE svg PUBLIC "-//W3C//DTD SVG 1.1//EN"
 "http://www.w3.org/Graphics/SVG/1.1/DTD/svg11.dtd">
<!-- Generated by graphviz version 2.47.0 (20210316.0004)
 -->
<!-- Title: dependencies Pages: 1 -->
<svg width="504pt" height="284pt"
 viewBox="0.00 0.00 504.00 284.00" xmlns="http://www.w3.org/2000/svg" xmlns:xlink="http://www.w3.org/1999/xlink">
<g id="graph0" class="graph" transform="scale(1 1) rotate(0) translate(4 280)">
<title>dependencies</title>
<polygon fill="white" stroke="transparent" points="-4,4 -4,-280 500,-280 500,4 -4,4"/>
<text text-anchor="start" x="227.01" y="-42.4" font-family="sans-serif" font-weight="bold" font-size="14.00">Legend</text>
<polygon fill="#ffffb3" stroke="transparent" points="14,-10 14,-30 34,-30 34,-10 14,-10"/>
<text text-anchor="start" x="37.63" y="-15.4" font-family="sans-serif" font-size="14.00"> &#160;Declarations</text>
<polygon fill="#8dd3c7" stroke="transparent" points="127,-10 127,-30 147,-30 147,-10 127,-10"/>
<text text-anchor="start" x="150.73" y="-15.4" font-family="sans-serif" font-size="14.00"> &#160;Module</text>
<polygon fill="#80b1d3" stroke="transparent" points="213,-10 213,-30 233,-30 233,-10 213,-10"/>
<text text-anchor="start" x="236.78" y="-15.4" font-family="sans-serif" font-size="14.00"> &#160;Bootstrap</text>
<polygon fill="#fdb462" stroke="transparent" points="310,-10 310,-30 330,-30 330,-10 310,-10"/>
<text text-anchor="start" x="333.67" y="-15.4" font-family="sans-serif" font-size="14.00"> &#160;Providers</text>
<polygon fill="#fb8072" stroke="transparent" points="406,-10 406,-30 426,-30 426,-10 406,-10"/>
<text text-anchor="start" x="429.73" y="-15.4" font-family="sans-serif" font-size="14.00"> &#160;Exports</text>
<g id="clust1" class="cluster">
<title>cluster_AppModule</title>
<polygon fill="none" stroke="black" stroke-dasharray="1,5" points="114,-70 114,-268 382,-268 382,-70 114,-70"/>
</g>
<g id="clust2" class="cluster">
<title>cluster_AppModule_declarations</title>
<polygon fill="none" stroke="black" points="252,-78 252,-130 374,-130 374,-78 252,-78"/>
</g>
<g id="clust6" class="cluster">
<title>cluster_AppModule_bootstrap</title>
<polygon fill="none" stroke="black" points="186,-208 186,-260 310,-260 310,-208 186,-208"/>
</g>
<g id="clust4" class="cluster">
<title>cluster_AppModule_imports</title>
<polygon fill="none" stroke="black" points="122,-78 122,-130 244,-130 244,-78 122,-78"/>
</g>
<!-- AppComponent -->
<g id="node1" class="node">
<title>AppComponent</title>
<polygon fill="#ffffb3" stroke="black" points="365.94,-122 260.06,-122 260.06,-86 365.94,-86 365.94,-122"/>
<text text-anchor="middle" x="313" y="-99.8" font-family="Times,serif" font-size="14.00">AppComponent</text>
</g>
<!-- AppModule -->
<g id="node2" class="node">
<title>AppModule</title>
<polygon fill="#8dd3c7" stroke="black" points="289.66,-187 286.66,-191 265.66,-191 262.66,-187 206.34,-187 206.34,-151 289.66,-151 289.66,-187"/>
<text text-anchor="middle" x="248" y="-164.8" font-family="Times,serif" font-size="14.00">AppModule</text>
</g>
<!-- AppComponent&#45;&gt;AppModule -->
<g id="edge1" class="edge">
<title>AppComponent&#45;&gt;AppModule</title>
<path fill="none" stroke="black" d="M275.05,-122.11C275.05,-122.11 275.05,-140.99 275.05,-140.99"/>
<polygon fill="black" stroke="black" points="271.55,-140.99 275.05,-150.99 278.55,-140.99 271.55,-140.99"/>
</g>
<!-- AppComponent  -->
<g id="node4" class="node">
<title>AppComponent </title>
<polygon fill="#80b1d3" stroke="black" points="302.44,-252 193.56,-252 193.56,-216 302.44,-216 302.44,-252"/>
<text text-anchor="middle" x="248" y="-229.8" font-family="Times,serif" font-size="14.00">AppComponent </text>
</g>
<!-- AppModule&#45;&gt;AppComponent  -->
<g id="edge3" class="edge">
<title>AppModule&#45;&gt;AppComponent </title>
<path fill="none" stroke="black" stroke-dasharray="1,5" d="M248,-187.11C248,-187.11 248,-205.99 248,-205.99"/>
<polygon fill="black" stroke="black" points="244.5,-205.99 248,-215.99 251.5,-205.99 244.5,-205.99"/>
</g>
<!-- WeatherModule -->
<g id="node3" class="node">
<title>WeatherModule</title>
<polygon fill="#8dd3c7" stroke="black" points="236.46,-122 233.46,-126 212.46,-126 209.46,-122 129.54,-122 129.54,-86 236.46,-86 236.46,-122"/>
<text text-anchor="middle" x="183" y="-99.8" font-family="Times,serif" font-size="14.00">WeatherModule</text>
</g>
<!-- WeatherModule&#45;&gt;AppModule -->
<g id="edge2" class="edge">
<title>WeatherModule&#45;&gt;AppModule</title>
<path fill="none" stroke="black" d="M221.33,-122.11C221.33,-122.11 221.33,-140.99 221.33,-140.99"/>
<polygon fill="black" stroke="black" points="217.83,-140.99 221.33,-150.99 224.83,-140.99 217.83,-140.99"/>
</g>
</g>
</svg>
