<?xml version="1.0" encoding="UTF-8" standalone="no"?>
<!DOCTYPE svg PUBLIC "-//W3C//DTD SVG 1.1//EN"
 "http://www.w3.org/Graphics/SVG/1.1/DTD/svg11.dtd">
<!-- Generated by graphviz version 2.47.0 (20210316.0004)
 -->
<!-- Title: dependencies Pages: 1 -->
<svg width="616pt" height="290pt"
 viewBox="0.00 0.00 616.00 290.00" xmlns="http://www.w3.org/2000/svg" xmlns:xlink="http://www.w3.org/1999/xlink">
<g id="graph0" class="graph" transform="scale(1 1) rotate(0) translate(4 286)">
<title>dependencies</title>
<polygon fill="white" stroke="transparent" points="-4,4 -4,-286 612,-286 612,4 -4,4"/>
<text text-anchor="start" x="283.01" y="-42.4" font-family="sans-serif" font-weight="bold" font-size="14.00">Legend</text>
<polygon fill="#ffffb3" stroke="transparent" points="70,-10 70,-30 90,-30 90,-10 70,-10"/>
<text text-anchor="start" x="93.63" y="-15.4" font-family="sans-serif" font-size="14.00"> &#160;Declarations</text>
<polygon fill="#8dd3c7" stroke="transparent" points="183,-10 183,-30 203,-30 203,-10 183,-10"/>
<text text-anchor="start" x="206.73" y="-15.4" font-family="sans-serif" font-size="14.00"> &#160;Module</text>
<polygon fill="#80b1d3" stroke="transparent" points="269,-10 269,-30 289,-30 289,-10 269,-10"/>
<text text-anchor="start" x="292.78" y="-15.4" font-family="sans-serif" font-size="14.00"> &#160;Bootstrap</text>
<polygon fill="#fdb462" stroke="transparent" points="366,-10 366,-30 386,-30 386,-10 366,-10"/>
<text text-anchor="start" x="389.67" y="-15.4" font-family="sans-serif" font-size="14.00"> &#160;Providers</text>
<polygon fill="#fb8072" stroke="transparent" points="462,-10 462,-30 482,-30 482,-10 462,-10"/>
<text text-anchor="start" x="485.73" y="-15.4" font-family="sans-serif" font-size="14.00"> &#160;Exports</text>
<g id="clust1" class="cluster">
<title>cluster_AppModule</title>
<polygon fill="none" stroke="black" stroke-dasharray="1,5" points="8,-70 8,-274 276,-274 276,-70 8,-70"/>
</g>
<g id="clust2" class="cluster">
<title>cluster_AppModule_declarations</title>
<polygon fill="none" stroke="black" points="16,-78 16,-130 138,-130 138,-78 16,-78"/>
</g>
<g id="clust4" class="cluster">
<title>cluster_AppModule_imports</title>
<polygon fill="none" stroke="black" points="146,-78 146,-130 268,-130 268,-78 146,-78"/>
</g>
<g id="clust6" class="cluster">
<title>cluster_AppModule_bootstrap</title>
<polygon fill="none" stroke="black" points="80,-214 80,-266 204,-266 204,-214 80,-214"/>
</g>
<g id="clust26" class="cluster">
<title>cluster_WeatherModule</title>
<polygon fill="none" stroke="black" stroke-dasharray="1,5" points="284,-138 284,-206 600,-206 600,-138 284,-138"/>
</g>
<g id="clust27" class="cluster">
<title>cluster_WeatherModule_declarations</title>
<polygon fill="none" stroke="black" points="448,-146 448,-198 592,-198 592,-146 448,-146"/>
</g>
<g id="clust30" class="cluster">
<title>cluster_WeatherModule_exports</title>
<polygon fill="none" stroke="black" points="292,-146 292,-198 440,-198 440,-146 292,-146"/>
</g>
<!-- AppComponent -->
<g id="node1" class="node">
<title>AppComponent</title>
<polygon fill="#ffffb3" stroke="black" points="129.94,-122 24.06,-122 24.06,-86 129.94,-86 129.94,-122"/>
<text text-anchor="middle" x="77" y="-99.8" font-family="Times,serif" font-size="14.00">AppComponent</text>
</g>
<!-- AppModule -->
<g id="node2" class="node">
<title>AppModule</title>
<polygon fill="#8dd3c7" stroke="black" points="183.66,-190 180.66,-194 159.66,-194 156.66,-190 100.34,-190 100.34,-154 183.66,-154 183.66,-190"/>
<text text-anchor="middle" x="142" y="-167.8" font-family="Times,serif" font-size="14.00">AppModule</text>
</g>
<!-- AppComponent&#45;&gt;AppModule -->
<g id="edge1" class="edge">
<title>AppComponent&#45;&gt;AppModule</title>
<path fill="none" stroke="black" d="M114.95,-122.22C114.95,-122.22 114.95,-143.73 114.95,-143.73"/>
<polygon fill="black" stroke="black" points="111.45,-143.73 114.95,-153.73 118.45,-143.73 111.45,-143.73"/>
</g>
<!-- AppComponent  -->
<g id="node4" class="node">
<title>AppComponent </title>
<polygon fill="#80b1d3" stroke="black" points="196.44,-258 87.56,-258 87.56,-222 196.44,-222 196.44,-258"/>
<text text-anchor="middle" x="142" y="-235.8" font-family="Times,serif" font-size="14.00">AppComponent </text>
</g>
<!-- AppModule&#45;&gt;AppComponent  -->
<g id="edge3" class="edge">
<title>AppModule&#45;&gt;AppComponent </title>
<path fill="none" stroke="black" stroke-dasharray="1,5" d="M142,-190.22C142,-190.22 142,-211.73 142,-211.73"/>
<polygon fill="black" stroke="black" points="138.5,-211.73 142,-221.73 145.5,-211.73 138.5,-211.73"/>
</g>
<!-- WeatherModule -->
<g id="node3" class="node">
<title>WeatherModule</title>
<polygon fill="#8dd3c7" stroke="black" points="260.46,-122 257.46,-126 236.46,-126 233.46,-122 153.54,-122 153.54,-86 260.46,-86 260.46,-122"/>
<text text-anchor="middle" x="207" y="-99.8" font-family="Times,serif" font-size="14.00">WeatherModule</text>
</g>
<!-- WeatherModule&#45;&gt;AppModule -->
<g id="edge2" class="edge">
<title>WeatherModule&#45;&gt;AppModule</title>
<path fill="none" stroke="black" d="M168.67,-122.22C168.67,-122.22 168.67,-143.73 168.67,-143.73"/>
<polygon fill="black" stroke="black" points="165.17,-143.73 168.67,-153.73 172.17,-143.73 165.17,-143.73"/>
</g>
<!-- WeatherComponent  -->
<g id="node6" class="node">
<title>WeatherComponent </title>
<polygon fill="#fb8072" stroke="black" points="432.24,-190 299.76,-190 299.76,-154 432.24,-154 432.24,-190"/>
<text text-anchor="middle" x="366" y="-167.8" font-family="Times,serif" font-size="14.00">WeatherComponent </text>
</g>
<!-- WeatherModule&#45;&gt;WeatherComponent  -->
<g id="edge5" class="edge">
<title>WeatherModule&#45;&gt;WeatherComponent </title>
<path fill="none" stroke="black" stroke-dasharray="5,2" d="M228.47,-122.22C228.47,-142.37 228.47,-172 228.47,-172 228.47,-172 289.65,-172 289.65,-172"/>
<polygon fill="black" stroke="black" points="289.65,-175.5 299.65,-172 289.65,-168.5 289.65,-175.5"/>
</g>
<!-- WeatherComponent -->
<g id="node5" class="node">
<title>WeatherComponent</title>
<polygon fill="#ffffb3" stroke="black" points="584.24,-190 455.76,-190 455.76,-154 584.24,-154 584.24,-190"/>
<text text-anchor="middle" x="520" y="-167.8" font-family="Times,serif" font-size="14.00">WeatherComponent</text>
</g>
<!-- WeatherComponent&#45;&gt;WeatherModule -->
<g id="edge4" class="edge">
<title>WeatherComponent&#45;&gt;WeatherModule</title>
<path fill="none" stroke="black" d="M520,-153.78C520,-133.63 520,-104 520,-104 520,-104 270.81,-104 270.81,-104"/>
<polygon fill="black" stroke="black" points="270.81,-100.5 260.81,-104 270.81,-107.5 270.81,-100.5"/>
</g>
</g>
</svg>
